<svg xmlns="http://www.w3.org/2000/svg" xmlns:xlink="http://www.w3.org/1999/xlink" width="800" zoomAndPan="magnify" viewBox="0 0 600 599.999999" height="800" preserveAspectRatio="xMidYMid meet" version="1.0"><defs><clipPath id="id1"><path d="M 156 108 L 441 108 L 441 494.222656 L 156 494.222656 Z M 156 108 " clip-rule="nonzero"/></clipPath></defs><g clip-path="url(#id1)"><path fill="rgb(94.898987%, 38.42926%, 35.289001%)" d="M 413.03125 324.964844 C 401.023438 329.128906 387.898438 320.902344 382.179688 310.601562 C 369.199219 287.207031 399.53125 262.632812 402.605469 238.976562 C 404.769531 222.261719 405.1875 209.136719 394.855469 194.933594 C 395.230469 215.546875 396.601562 247.972656 366.804688 246.835938 C 336.660156 245.691406 359.042969 211.042969 357.441406 194.035156 C 353.710938 154.132812 314.507812 118.53125 277.417969 110.746094 C 253.496094 105.71875 231.804688 107.375 211.175781 120.96875 C 232.074219 118.644531 261.871094 119.347656 276.328125 137.691406 C 291.085938 156.4375 293.832031 183.277344 288.242188 205.847656 C 284.347656 221.546875 272.59375 245.238281 256.4375 250.945312 C 240.765625 256.46875 216.203125 234.683594 223.335938 217.53125 C 198.953125 226.304688 185.019531 254.847656 190.738281 279.730469 C 195.175781 299.085938 214.519531 306.777344 223.78125 322.617188 C 236.011719 343.527344 224.042969 372.160156 205.25 385.359375 C 188.332031 397.238281 171.878906 392.90625 156.121094 381.683594 C 158.402344 456.734375 226.46875 494.230469 296.101562 494.085938 C 297.722656 494.085938 299.359375 494.050781 300.980469 494.003906 C 301.253906 494.003906 301.527344 493.992188 301.796875 493.984375 C 326.714844 493.1875 349.738281 487.777344 369.570312 477.871094 C 374.125 473.207031 378.015625 467.933594 381.011719 462.191406 C 384.84375 454.851562 387.351562 445.832031 388.464844 437.640625 C 388.90625 434.449219 389.113281 431.230469 389.089844 428.007812 C 389.078125 425.714844 387.820312 421.222656 388.601562 419.144531 C 384.0625 431.285156 371.117188 427.085938 363.355469 421.109375 C 358.644531 417.492188 356.070312 412.519531 354.324219 406.914062 C 353.199219 403.285156 352.449219 399.527344 351.828125 395.773438 C 351.453125 393.515625 349.070312 385.628906 350.191406 383.734375 C 346.085938 390.738281 335.203125 424.636719 323.902344 406.664062 C 315.03125 392.539062 304.191406 378.121094 285.550781 378.742188 C 296.386719 392.507812 298.976562 406.300781 286.253906 420.269531 C 281.523438 425.464844 275.859375 429.730469 269.3125 432.328125 C 263.347656 434.703125 250.75 429.824219 249.300781 439.101562 C 248.246094 445.898438 252.875 456.679688 256.152344 462.398438 C 260.304688 469.644531 266.398438 475.570312 272.980469 480.605469 C 278.449219 484.804688 284.441406 488.628906 290.78125 491.714844 C 274.207031 487.074219 258.601562 478.222656 245.15625 467.921875 C 235.5 460.511719 226.539062 451.808594 220.445312 441.179688 C 215.632812 432.761719 208.824219 416.933594 210.378906 406.960938 C 212.511719 393.324219 231.007812 400.492188 239.765625 397.011719 C 249.390625 393.1875 257.707031 386.921875 264.671875 379.289062 C 283.351562 358.765625 279.546875 338.511719 263.628906 318.292969 C 291.007812 317.375 306.929688 338.546875 319.976562 359.296875 C 336.566406 385.699219 352.550781 335.902344 358.578125 325.621094 C 356.945312 328.414062 360.429688 339.984375 360.980469 343.300781 C 361.914062 348.8125 362.992188 354.339844 364.660156 359.671875 C 367.222656 367.898438 371 375.203125 377.925781 380.527344 C 389.316406 389.296875 408.347656 395.46875 415.003906 377.640625 C 413.871094 380.683594 415.710938 387.289062 415.730469 390.644531 C 415.765625 395.386719 415.457031 400.121094 414.808594 404.804688 C 413.167969 416.832031 409.5 430.09375 403.863281 440.875 C 396.476562 454.976562 385.460938 467.195312 372.339844 476.453125 C 405.144531 459.09375 428.8125 429.074219 437.265625 386.9375 C 443.882812 353.988281 439.46875 322.652344 430.207031 290.769531 C 427.960938 302.796875 426.535156 320.292969 413.03125 324.964844 " fill-opacity="1" fill-rule="nonzero"/></g></svg>